<svg width="16" height="16" viewBox="0 0 16 16" fill="none" xmlns="http://www.w3.org/2000/svg">
<path className="fill-current" d="M8 1.44C10.16 1.44 10.4 1.44 11.2 1.52C13.44 1.6 14.4 2.64 14.48 4.8C14.48 5.6 14.56 5.92 14.56 8C14.56 10.08 14.56 10.4 14.48 11.2C14.4 13.36 13.36 14.4 11.2 14.48C10.32 14.48 10.08 14.56 8 14.56C5.84 14.56 5.6 14.56 4.8 14.48C2.56 14.4 1.6 13.36 1.52 11.2C1.52 10.32 1.44 10.08 1.44 8C1.44 5.84 1.44 5.6 1.52 4.8C1.6 2.64 2.56 1.6 4.8 1.52C5.6 1.44 5.84 1.44 8 1.44ZM8 0C5.84 0 5.52 -7.7486e-08 4.72 0.0799999C1.76 0.16 0.16 1.76 0.0799999 4.72C-7.7486e-08 5.52 0 5.84 0 8C0 10.16 -7.7486e-08 10.48 0.0799999 11.28C0.24 14.16 1.84 15.76 4.72 15.92C5.52 16 5.84 16 8 16C10.16 16 10.48 16 11.28 15.92C14.16 15.76 15.76 14.16 15.92 11.28C15.92 10.4 16 10.16 16 8C16 5.84 16 5.52 15.92 4.72C15.76 1.84 14.16 0.16 11.28 0.0799999C10.48 -7.7486e-08 10.16 0 8 0ZM8 3.92C5.76 3.92 3.92 5.76 3.92 8C3.92 10.24 5.76 12.08 8 12.08C10.24 12.08 12.08 10.24 12.08 8C12.08 5.76 10.24 3.92 8 3.92ZM8 10.64C6.56 10.64 5.36 9.44 5.36 8C5.36 6.56 6.56 5.36 8 5.36C9.44 5.36 10.64 6.56 10.64 8C10.64 9.44 9.44 10.64 8 10.64ZM12.24 2.8C11.68 2.8 11.28 3.2 11.28 3.76C11.28 4.32 11.68 4.72 12.24 4.72C12.8 4.72 13.2 4.32 13.2 3.76C13.2 3.2 12.8 2.8 12.24 2.8Z" fill="white"/>
</svg>
